<svg width="26" height="52" viewBox="0 0 26 52" fill="none" xmlns="http://www.w3.org/2000/svg">
<path d="M14.2052 51.5H14.7052V51V46.372C17.5096 46.2332 20.1342 45.3635 22.1002 43.7166C24.1928 41.9638 25.5 39.3621 25.5 35.9444C25.5 33.0972 24.8051 30.9694 22.9578 29.1443C21.1482 27.3564 18.2664 25.8957 14.0054 24.2557C10.0437 22.7273 7.66384 21.5069 6.26606 20.1607C4.91373 18.8583 4.45283 17.4086 4.45283 15.2778C4.45283 13.2882 5.16663 11.4118 6.63474 10.0309C8.10262 8.65012 10.3705 7.72222 13.5542 7.72222C18.1005 7.72222 20.8234 8.9584 23.4666 10.7992L23.8957 11.098L24.1751 10.656L24.7718 9.71151L25.0258 9.30943L24.6369 9.03562C22.0615 7.22224 19.2541 5.8234 14.7052 5.62747V1V0.5H14.2052H13.066H12.566V1V5.6302C9.30915 5.80384 6.77094 6.89951 5.02224 8.59212C3.1872 10.3683 2.25943 12.766 2.25943 15.3333C2.25943 18.0692 2.92719 20.0745 4.67629 21.7689C6.38524 23.4243 9.09225 24.7455 13.0517 26.2454C17.0625 27.7719 19.6217 29.0764 21.1835 30.5635C22.7062 32.0134 23.3066 33.6635 23.3066 36C23.3066 38.853 22.1923 40.8996 20.4741 42.2452C18.7401 43.6033 16.3496 44.2778 13.7712 44.2778C9.44694 44.2778 6.13574 42.9342 3.01298 40.4949L2.61028 40.1803L2.30455 40.5897L1.59936 41.5342L1.31086 41.9206L1.68654 42.2229C4.69656 44.645 8.23007 46.1113 12.566 46.3654V51V51.5H13.066H14.2052Z" fill="#AB9834" stroke="#AB9834"/>
</svg>
